HIERARCHY
ROOT Hips
{
    OFFSET   0.000000   0.000000   0.000000
    CHANNELS 6 Xposition Yposition Zposition Zrotation Xrotation Yrotation
    JOINT Chest
    {
        OFFSET   0.000000   8.007240   0.000000
        CHANNELS 3 Zrotation Xrotation Yrotation
        JOINT Chest2
        {
            OFFSET   0.000000  22.077100   0.000000
            CHANNELS 3 Zrotation Xrotation Yrotation
            JOINT Neck
            {
                OFFSET   0.000000  23.254800   0.000000
                CHANNELS 3 Zrotation Xrotation Yrotation
                JOINT Head
                {
                    OFFSET   0.000000  14.370000   1.956600
                    CHANNELS 3 Zrotation Xrotation Yrotation
                    End Site
                    {
                        OFFSET   0.000000  19.566000   0.000000
                    }
                }
            }
            JOINT LeftCollar
            {
                OFFSET   3.911900  19.017000  -0.467064
                CHANNELS 3 Zrotation Xrotation Yrotation
                JOINT LeftShoulder
                {
                    OFFSET  10.383700   0.000000   0.000000
                    CHANNELS 3 Zrotation Xrotation Yrotation
                    JOINT LeftElbow
                    {
                        OFFSET  26.662100   0.001476   0.000517
                        CHANNELS 3 Zrotation Xrotation Yrotation
                        JOINT LeftWrist
                        {
                            OFFSET  28.869000  -0.000025  -0.000106
                            CHANNELS 3 Zrotation Xrotation Yrotation
                            JOINT LeftFinger0
                            {
                                OFFSET   2.044660  -2.323460   3.252850
                                CHANNELS 3 Zrotation Xrotation Yrotation
                                JOINT LeftFinger01
                                {
                                    OFFSET   3.088130   0.000000   0.000000
                                    CHANNELS 3 Zrotation Xrotation Yrotation
                                    JOINT LeftFinger02
                                    {
                                        OFFSET   2.639460   0.000000   0.000000
                                        CHANNELS 3 Zrotation Xrotation Yrotation
                                        End Site
                                        {
                                            OFFSET   2.582190   0.000000   0.000000
                                        }
                                    }
                                }
                            }
                            JOINT LeftFinger1
                            {
                                OFFSET   8.364480   0.000000   3.252850
                                CHANNELS 3 Zrotation Xrotation Yrotation
                                JOINT LeftFinger11
                                {
                                    OFFSET   4.646930   0.000000   0.000000
                                    CHANNELS 3 Zrotation Xrotation Yrotation
                                    JOINT LeftFinger12
                                    {
                                        OFFSET   2.323460   0.000000   0.000000
                                        CHANNELS 3 Zrotation Xrotation Yrotation
                                        End Site
                                        {
                                            OFFSET   2.273050   0.000000   0.000000
                                        }
                                    }
                                }
                            }
                            JOINT LeftFinger2
                            {
                                OFFSET   8.364490   0.000015   1.078090
                                CHANNELS 3 Zrotation Xrotation Yrotation
                                JOINT LeftFinger21
                                {
                                    OFFSET   5.111620   0.000000   0.000000
                                    CHANNELS 3 Zrotation Xrotation Yrotation
                                    JOINT LeftFinger22
                                    {
                                        OFFSET   2.788160   0.000016   0.000000
                                        CHANNELS 3 Zrotation Xrotation Yrotation
                                        End Site
                                        {
                                            OFFSET   2.727660   0.000000   0.000000
                                        }
                                    }
                                }
                            }
                            JOINT LeftFinger3
                            {
                                OFFSET   7.899780   0.000017  -1.078090
                                CHANNELS 3 Zrotation Xrotation Yrotation
                                JOINT LeftFinger31
                                {
                                    OFFSET   4.646930   0.000000   0.000000
                                    CHANNELS 3 Zrotation Xrotation Yrotation
                                    JOINT LeftFinger32
                                    {
                                        OFFSET   2.323470   0.000000   0.000000
                                        CHANNELS 3 Zrotation Xrotation Yrotation
                                        End Site
                                        {
                                            OFFSET   2.273050   0.000000   0.000000
                                        }
                                    }
                                }
                            }
                            JOINT LeftFinger4
                            {
                                OFFSET   7.435090   0.000000  -3.252850
                                CHANNELS 3 Zrotation Xrotation Yrotation
                                JOINT LeftFinger41
                                {
                                    OFFSET   3.717550   0.000000   0.000000
                                    CHANNELS 3 Zrotation Xrotation Yrotation
                                    JOINT LeftFinger42
                                    {
                                        OFFSET   1.858770   0.000000   0.000000
                                        CHANNELS 3 Zrotation Xrotation Yrotation
                                        End Site
                                        {
                                            OFFSET   1.818440   0.000000   0.000000
                                        }
                                    }
                                }
                            }
                        }
                    }
                }
            }
            JOINT RightCollar
            {
                OFFSET  -3.911900  19.017000  -0.467063
                CHANNELS 3 Zrotation Xrotation Yrotation
                JOINT RightShoulder
                {
                    OFFSET -10.383700   0.000019   0.000000
                    CHANNELS 3 Zrotation Xrotation Yrotation
                    JOINT RightElbow
                    {
                        OFFSET -26.662100   0.001175   0.000102
                        CHANNELS 3 Zrotation Xrotation Yrotation
                        JOINT RightWrist
                        {
                            OFFSET -28.869000   0.000016  -0.000079
                            CHANNELS 3 Zrotation Xrotation Yrotation
                            JOINT RightFinger0
                            {
                                OFFSET  -2.044660  -2.323490   3.252850
                                CHANNELS 3 Zrotation Xrotation Yrotation
                                JOINT RightFinger01
                                {
                                    OFFSET  -3.088140   0.000000   0.000000
                                    CHANNELS 3 Zrotation Xrotation Yrotation
                                    JOINT RightFinger02
                                    {
                                        OFFSET  -2.639460   0.000000   0.000000
                                        CHANNELS 3 Zrotation Xrotation Yrotation
                                        End Site
                                        {
                                            OFFSET  -2.582190   0.000000   0.000000
                                        }
                                    }
                                }
                            }
                            JOINT RightFinger1
                            {
                                OFFSET  -8.364480   0.000000   3.252850
                                CHANNELS 3 Zrotation Xrotation Yrotation
                                JOINT RightFinger11
                                {
                                    OFFSET  -4.646930   0.000000   0.000000
                                    CHANNELS 3 Zrotation Xrotation Yrotation
                                    JOINT RightFinger12
                                    {
                                        OFFSET  -2.323470   0.000000   0.000000
                                        CHANNELS 3 Zrotation Xrotation Yrotation
                                        End Site
                                        {
                                            OFFSET  -2.273050   0.000000   0.000000
                                        }
                                    }
                                }
                            }
                            JOINT RightFinger2
                            {
                                OFFSET  -8.364480   0.000000   1.078090
                                CHANNELS 3 Zrotation Xrotation Yrotation
                                JOINT RightFinger21
                                {
                                    OFFSET  -5.111620   0.000000   0.000000
                                    CHANNELS 3 Zrotation Xrotation Yrotation
                                    JOINT RightFinger22
                                    {
                                        OFFSET  -2.788160   0.000000   0.000000
                                        CHANNELS 3 Zrotation Xrotation Yrotation
                                        End Site
                                        {
                                            OFFSET  -2.727660   0.000000   0.000000
                                        }
                                    }
                                }
                            }
                            JOINT RightFinger3
                            {
                                OFFSET  -7.899780   0.000000  -1.078090
                                CHANNELS 3 Zrotation Xrotation Yrotation
                                JOINT RightFinger31
                                {
                                    OFFSET  -4.646930   0.000000   0.000000
                                    CHANNELS 3 Zrotation Xrotation Yrotation
                                    JOINT RightFinger32
                                    {
                                        OFFSET  -2.323470   0.000000   0.000000
                                        CHANNELS 3 Zrotation Xrotation Yrotation
                                        End Site
                                        {
                                            OFFSET  -2.273050   0.000000   0.000000
                                        }
                                    }
                                }
                            }
                            JOINT RightFinger4
                            {
                                OFFSET  -7.435090   0.000000  -3.252850
                                CHANNELS 3 Zrotation Xrotation Yrotation
                                JOINT RightFinger41
                                {
                                    OFFSET  -3.717550   0.000000   0.000000
                                    CHANNELS 3 Zrotation Xrotation Yrotation
                                    JOINT RightFinger42
                                    {
                                        OFFSET  -1.858770   0.000000   0.000000
                                        CHANNELS 3 Zrotation Xrotation Yrotation
                                        End Site
                                        {
                                            OFFSET  -1.818440   0.000000   0.000000
                                        }
                                    }
                                }
                            }
                        }
                    }
                }
            }
        }
    }
    JOINT LeftHip
    {
        OFFSET   9.783040   0.000000   0.000000
        CHANNELS 3 Zrotation Xrotation Yrotation
        JOINT LeftKnee
        {
            OFFSET   0.000032 -41.789100  -0.002222
            CHANNELS 3 Zrotation Xrotation Yrotation
            JOINT LeftAnkle
            {
                OFFSET   0.000087 -41.133200  -0.000135
                CHANNELS 3 Zrotation Xrotation Yrotation
                JOINT LeftToe
                {
                    OFFSET   0.000000  -6.358960  14.674500
                    CHANNELS 3 Zrotation Xrotation Yrotation
                    End Site
                    {
                        OFFSET   0.000000   0.000000   3.913200
                    }
                }
            }
        }
    }
    JOINT RightHip
    {
        OFFSET  -9.783040   0.000000   0.000000
        CHANNELS 3 Zrotation Xrotation Yrotation
        JOINT RightKnee
        {
            OFFSET   0.000047 -41.789100  -0.000896
            CHANNELS 3 Zrotation Xrotation Yrotation
            JOINT RightAnkle
            {
                OFFSET  -0.000117 -41.133300  -0.000248
                CHANNELS 3 Zrotation Xrotation Yrotation
                JOINT RightToe
                {
                    OFFSET   0.000000  -6.358970  14.674500
                    CHANNELS 3 Zrotation Xrotation Yrotation
                    End Site
                    {
                        OFFSET   0.000000   0.000000   3.913200
                    }
                }
            }
        }
    }
}
MOTION
Frames: 4
Frame Time:   0.016667
  0.286005  89.447300  -1.106450  -1.108550  -6.108590   0.617508   0.721828   4.629680  -0.337594   1.478390   9.254630  -0.737531   0.939225   1.097780  -0.015256   1.544420   2.222380  10.871300  -5.285930   2.738350   9.983380 -78.410700  11.789800  -3.750280  -0.733230   1.555770 -14.486700   6.053340  -4.214990  -3.868260  37.134400  28.001800 -51.965000 -32.719200   0.184296   0.176107 -11.359400   0.084944   0.095021 -30.064000  -1.520160   2.624070 -24.626300   0.011540   0.023132 -17.238400  -0.005580   0.016761 -28.543300  -3.815560   6.969730 -41.801900  -0.026102  -0.134370 -27.840100   0.025913  -0.087361 -27.512100  -3.696340   7.038060 -30.447400  -0.009884  -0.114777 -20.278000   0.033004  -0.069235 -28.833600  -3.855790   6.951220 -43.602400   0.055995  -0.149117 -29.039200   0.092686  -0.051521   3.025040   4.021780   9.109280  55.200700 -18.011900  50.227100 -16.783400 -17.989300  88.056000 -49.494100  42.036400  32.114900 -40.806700  29.764400  69.661200  -3.589940  -0.005166  -0.002363  -6.794970   0.004127  -0.001841   2.639690   0.581646  12.412900   2.211730  -0.001068  -0.001534   1.548190  -0.001522  -0.000432   0.365556  -0.000721  -1.278010   0.365614  -0.000965  -0.009546   0.243508  -0.000691  -0.006795  -3.334520   0.646053 -10.957500  -0.000000   0.003835   0.001267  -0.000000   0.002718   0.001514   2.616050  -1.558230 -30.752500   4.567020   0.001723   0.000803   3.041640   0.001046  -0.002071   3.790410   8.969810   0.467566  -0.137144   0.002544  13.992500  -3.299160  -3.378830  -0.524214  -0.000000   0.000000  -0.000000  -1.525650   8.912930  -3.030190   1.388080   0.218477 -13.342300   1.052600  -2.402410  -0.101160   0.000000   0.000000   0.000000
  0.269081  89.446600  -1.080870  -1.109510  -6.091630   0.614124   0.729085   4.609640  -0.345213   1.493450   9.214410  -0.753036   0.922502   1.097060  -0.015377   1.517190   2.220900  10.871200  -5.294360   2.746300   9.973360 -78.415000  11.758200  -3.720230  -0.739277   1.583690 -14.463900   6.024970  -4.181940  -3.852370  37.130700  28.025100 -52.010500 -32.739600   0.081648   0.081346 -11.369800   0.037627   0.042268 -30.059500  -1.524630   2.632540 -24.622900   0.010743   0.009429 -17.236000  -0.005580   0.007016 -28.542700  -3.817400   6.973940 -41.755400  -0.009458  -0.059964 -27.809100   0.012314  -0.038502 -27.504900  -3.696160   7.042710 -30.407700  -0.000255  -0.049280 -20.251600   0.015886  -0.028396 -28.821300  -3.855690   6.956190 -43.584000   0.029768  -0.062083 -29.027000   0.040749  -0.019082   3.031990   4.032350   9.109860  55.137000 -17.973800  50.204600 -16.905800 -18.013200  87.910200 -49.673000  42.161600  32.303100 -40.782400  29.876400  69.838800  -3.765220  -0.005304  -0.002350  -6.882610   0.004204  -0.001896   2.635610   0.585199  12.525400   2.209140  -0.001037  -0.001465   1.546400  -0.001478  -0.000410   0.319059  -0.000049  -1.189330   0.319022  -0.001000  -0.009553   0.212474  -0.000719  -0.006806  -3.438780   0.660979 -10.843000  -0.000000   0.003924   0.001241  -0.000000   0.002786   0.001479   2.596260  -1.544470 -30.707800   4.530210   0.001781   0.000781   3.017130   0.001088  -0.002031   3.807540   8.951660   0.469895  -0.135453   0.043832  13.993000  -3.318290  -3.415590  -0.526089  -0.000000   0.000000   0.000000  -1.516820   8.912390  -3.026660   1.403050   0.219369 -13.342400   1.042740  -2.414760  -0.098799   0.000000   0.000000   0.000000
  0.252865  89.445900  -1.056710  -1.110890  -6.075970   0.606139   0.735633   4.591660  -0.348938   1.506700   9.178330  -0.760890   0.907050   1.093540  -0.015500   1.491710   2.215350  10.870900  -5.298770   2.750580   9.963520 -78.420200  11.732300  -3.683550  -0.752509   1.612900 -14.445800   5.985740  -4.119140  -3.837940  37.133300  28.044300 -52.034600 -32.748000  -0.020985  -0.013409 -11.374000  -0.009690  -0.010481 -30.040900  -1.525590   2.635840 -24.607700   0.009189  -0.003886 -17.225300  -0.005580  -0.002664 -28.541700  -3.821260   6.982290 -41.663300   0.005303   0.014442 -27.747700  -0.001285   0.010080 -27.491700  -3.695960   7.051860 -30.336000   0.007077   0.016217 -20.203800  -0.001232   0.011574 -28.796900  -3.855550   6.966020 -43.547900  -0.002766   0.023383 -29.002900  -0.011189   0.010717   3.040820   4.038150   9.111410  55.029600 -17.929300  50.155000 -17.001800 -18.034300  87.750100 -49.929300  42.348500  32.566600 -40.757300  29.893300  69.890000  -3.828200  -0.005442  -0.002341  -6.914090   0.004282  -0.001950   2.631650   0.589274  12.614100   2.206550  -0.001009  -0.001395   1.544600  -0.001434  -0.000386   0.272559   0.000551  -1.145070   0.272431  -0.001037  -0.009562   0.181440  -0.000746  -0.006816  -3.542440   0.675790 -10.783800  -0.000000   0.004012   0.001216  -0.000000   0.002851   0.001443   2.565150  -1.524360 -30.701100   4.475380   0.001837   0.000760   2.980610   0.001128  -0.001990   3.821820   8.933510   0.470591  -0.133763   0.085120  13.994500  -3.336460  -3.452350  -0.526374  -0.000000   0.000000  -0.000000  -1.508900   8.908400  -3.023100   1.411000   0.225618 -13.342600   1.035630  -2.439960  -0.095422  -0.000000   0.000000  -0.000000
  0.236698  89.445300  -1.034040  -1.112560  -6.061020   0.594881   0.741054   4.575360  -0.349003   1.517410   9.145690  -0.761365   0.894884   1.084740  -0.015619   1.472680   2.198250  10.860700  -5.298700   2.751700   9.958920 -78.429300  11.717800  -3.644920  -0.764323   1.638980 -14.426800   5.973400  -4.033430  -3.823090  37.138700  28.031600 -52.001200 -32.729400  -0.008236  -0.005245 -11.364700  -0.003700  -0.005591 -29.989400  -1.519710   2.629940 -24.565300   0.007435   0.001723 -17.195700  -0.005579   0.002203 -28.540200  -3.826690   6.994380 -41.534800   0.007176   0.006518 -27.662100  -0.001286   0.009921 -27.475900  -3.695730   7.064660 -30.254400  -0.004764  -0.006585 -20.149500  -0.001232  -0.005566 -28.764100  -3.855390   6.978650 -43.499000  -0.009409  -0.011122 -28.970400   0.000617  -0.008565   3.051640   4.047230   9.122170  54.932800 -17.935300  50.084800 -17.096900 -18.012900  87.639800 -50.060500  42.447400  32.688700 -40.677700  29.777900  69.804800  -3.813200  -0.005552  -0.002339  -6.906580   0.004345  -0.002008   2.709120   0.613620  12.709600   2.272850  -0.000978  -0.001323   1.591010  -0.001389  -0.000347   0.324515   0.001069  -1.148100   0.324279  -0.001074  -0.009581   0.215966  -0.000769  -0.006842  -3.508150   0.671775 -10.798800  -0.000000   0.004101   0.001194  -0.000000   0.002928   0.001401   2.552170  -1.518780 -30.732200   4.454090   0.001898   0.000749   2.966420   0.001172  -0.001950   3.829440   8.956610   0.468429  -0.130402   0.043018  14.003800  -3.340550  -3.445240  -0.523668  -0.000000   0.000000  -0.000000  -1.500870   8.880660  -3.027930   1.420760   0.274929 -13.330500   1.030260  -2.482910  -0.093719  -0.000000   0.000000   0.000000
